<svg width="260" height="260" viewBox="0 0 260 260" fill="none" xmlns="http://www.w3.org/2000/svg">
<rect width="260" height="260" fill="white"/>
<g clip-path="url(#clip0_40_1424)">
<path d="M171.666 96.7302H131.539C127.868 96.7302 124.892 99.706 124.892 103.377V107.754L136.166 109.56C142.923 110.643 147.54 117.021 146.458 123.778C145.622 128.995 141.566 133.118 136.365 134.038C135.656 134.164 134.931 134.228 134.21 134.228C133.553 134.228 132.89 134.175 132.239 134.07L124.892 132.893V143.503C124.892 147.174 127.868 150.149 131.539 150.149H171.665C175.335 150.149 178.311 147.174 178.311 143.503V103.377C178.312 99.706 175.336 96.7302 171.666 96.7302Z" fill="#AEC0D1"/>
<path d="M135.367 114.544L110.215 110.515L101.921 92.3202L112.915 105.836L118.372 106.71V87.3561C118.372 81.662 113.756 77.0461 108.062 77.0461H89.676C83.9819 77.0461 79.366 81.662 79.366 87.3561V140.336L82.7027 167.249L68.2278 202.381C66.4577 206.677 68.5054 211.594 72.801 213.364C77.0977 215.134 82.014 213.084 83.7833 208.791L99.1004 171.613C99.6524 170.273 99.8493 168.812 99.6706 167.374L97.0384 146.143H103.572L105.941 164.279L97.5618 203.844C96.5993 208.389 99.5035 212.854 104.048 213.816C108.593 214.779 113.059 211.874 114.021 207.329L122.698 166.358C122.895 165.427 122.933 164.47 122.81 163.526L118.679 131.898L103.189 129.417C97.3667 128.486 94.0091 123.745 93.5014 121.205L89.2928 100.125L98.4508 120.217C99.4741 122.461 101.552 124.044 103.987 124.434L133.038 129.087C136.638 129.664 140.075 127.52 141.194 124.134C142.623 119.803 139.831 115.259 135.367 114.544Z" fill="#DEE7EF"/>
<path d="M98.9501 72.4739C107.379 72.4739 114.212 65.6408 114.212 57.2117C114.212 48.7826 107.379 41.9495 98.9501 41.9495C90.521 41.9495 83.6879 48.7826 83.6879 57.2117C83.6879 65.6408 90.521 72.4739 98.9501 72.4739Z" fill="#DEE7EF"/>
<path d="M185.278 62.044H137.349C133.963 62.044 131.219 64.7888 131.219 68.1744V84.8938C131.219 88.2794 133.963 91.0242 137.349 91.0242H185.278C188.664 91.0242 191.408 88.2794 191.408 84.8938V68.1744C191.408 64.7888 188.664 62.044 185.278 62.044Z" fill="#DEE7EF"/>
<path d="M163.518 35H148.001C146.374 35 145.055 36.3191 145.055 37.9465V53.4629C145.055 55.0903 146.374 56.4094 148.001 56.4094H163.518C165.145 56.4094 166.464 55.0903 166.464 53.4629V37.9465C166.464 36.3191 165.145 35 163.518 35Z" fill="#F2F9FF"/>
</g>
<defs>
<clipPath id="clip0_40_1424">
<rect width="179" height="179" fill="white" transform="translate(40 35)"/>
</clipPath>
</defs>
</svg>
