<svg width="260" height="260" viewBox="0 0 260 260" fill="none" xmlns="http://www.w3.org/2000/svg">
<rect width="260" height="260" fill="white"/>
<path d="M197.434 97.0615H149.135V98.4155C149.135 109.242 140.327 118.05 129.5 118.05C118.674 118.05 109.865 109.242 109.865 98.4155V97.0615H61.5663C49.6744 97.0615 40 106.737 40 118.628V125.745C40 135.158 46.0623 143.182 54.4879 146.119L59.1472 191.782C60.5008 202.543 69.7008 210.658 80.5461 210.658H178.455C189.3 210.658 198.5 202.543 199.854 191.782L204.513 146.119C212.938 143.182 219 135.158 219 125.745V118.628C219 106.737 209.326 97.0615 197.434 97.0615ZM103.423 180.005C103.423 184.12 100.088 187.455 95.9728 187.455C91.8579 187.455 88.5222 184.12 88.5222 180.005V150.576C88.5222 146.462 91.8579 143.126 95.9728 143.126C100.087 143.126 103.423 146.462 103.423 150.576V180.005ZM136.951 180.005C136.951 184.12 133.614 187.455 129.5 187.455C125.386 187.455 122.049 184.12 122.049 180.005V150.576C122.049 146.462 125.386 143.126 129.5 143.126C133.614 143.126 136.951 146.462 136.951 150.576V180.005ZM170.478 180.005C170.478 184.12 167.142 187.455 163.027 187.455C158.913 187.455 155.577 184.12 155.577 180.005V150.576C155.577 146.462 158.912 143.126 163.027 143.126C167.142 143.126 170.478 146.462 170.478 150.576V180.005Z" fill="#DEE7EF"/>
<path d="M129.5 110.153C135.982 110.153 141.238 104.898 141.238 98.4155V46.0791C141.238 39.5967 135.982 34.3414 129.5 34.3414C123.018 34.3414 117.762 39.5967 117.762 46.0791V98.4155C117.762 104.898 123.018 110.153 129.5 110.153Z" fill="#AEC0D1"/>
</svg>
