<svg width="260" height="260" viewBox="0 0 260 260" fill="none" xmlns="http://www.w3.org/2000/svg">
<rect width="260" height="260" fill="white"/>
<path d="M194.32 89.2334H138.767V33.6796C168.86 34.8611 193.139 59.1399 194.32 89.2334Z" fill="#AEC0D1"/>
<path d="M189.687 103.133C188.459 136.563 160.891 163.367 127.183 163.367C92.6883 163.367 64.6334 135.312 64.6334 100.817C64.6334 67.1094 91.4373 39.5409 124.867 38.3133V100.817C124.867 102.091 125.909 103.133 127.183 103.133H189.687Z" fill="#DEE7EF"/>
<path d="M125 207.952V210.333C125 212.119 123.571 213.667 121.667 213.667C119.762 213.667 118.333 212.119 118.333 210.333V207.952C118.333 206.167 119.762 204.619 121.667 204.619C123.571 204.619 125 206.167 125 207.952Z" fill="#F2F9FF"/>
<path d="M133.333 200.81V210.333C133.333 212.119 131.905 213.667 130 213.667C128.095 213.667 126.667 212.119 126.667 210.333V200.81C126.667 199.024 128.095 197.476 130 197.476C131.905 197.476 133.333 199.024 133.333 200.81Z" fill="#DEE7EF"/>
<path d="M141.667 193.667V210.333C141.667 212.119 140.238 213.667 138.333 213.667C136.429 213.667 135 212.238 135 210.333V193.667C135 191.881 136.429 190.333 138.333 190.333C140.238 190.333 141.667 191.881 141.667 193.667Z" fill="#AEC0D1"/>
</svg>
