<svg width="149" height="52" viewBox="0 0 149 52" fill="none" xmlns="http://www.w3.org/2000/svg">
<g clip-path="url(#clip0_12_2)">
<path d="M17.209 22.724H21.309C22.379 22.7536 23.441 22.5309 24.409 22.074C25.2411 21.6693 25.9314 21.0223 26.389 20.218C26.867 19.3361 27.1043 18.3438 27.077 17.341V15.797C27.0901 15.0233 26.9284 14.2566 26.604 13.554C26.299 12.9018 25.8296 12.3401 25.242 11.924C24.6086 11.4877 23.878 11.2131 23.114 11.124C23.832 11.0082 24.514 10.7297 25.108 10.31C25.6417 9.92201 26.0694 9.40625 26.352 8.81002C26.6487 8.17354 26.7974 7.47817 26.787 6.77602V5.55602C26.8114 4.55945 26.5786 3.57341 26.111 2.69302C25.6626 1.89502 24.9759 1.25724 24.147 0.869022C23.1514 0.419836 22.0667 0.203033 20.975 0.235023H13.675V22.724H17.209ZM23.227 14.024C23.4364 14.488 23.5389 14.9931 23.527 15.502V17.024C23.5459 17.35 23.493 17.6761 23.3721 17.9793C23.2511 18.2826 23.065 18.5556 22.827 18.779C22.2242 19.2408 21.4721 19.4638 20.715 19.405H17.215V12.785H20.842C21.353 12.77 21.8601 12.8787 22.32 13.102C22.7164 13.3 23.0355 13.6245 23.227 14.024ZM20.721 3.56002C21.3954 3.51432 22.0626 3.72105 22.593 4.14002C22.8172 4.35557 22.9915 4.61755 23.1038 4.90758C23.2161 5.19762 23.2636 5.5087 23.243 5.81902V6.99302C23.2663 7.32532 23.2238 7.65895 23.1177 7.97473C23.0116 8.2905 22.8442 8.58219 22.625 8.83302C22.3822 9.05617 22.0965 9.22763 21.7853 9.33696C21.4742 9.44629 21.1441 9.49122 20.815 9.46902H17.21V3.55902L20.721 3.56002Z" fill="black"/>
<path d="M39.121 12.603C40.014 12.1424 40.7494 11.4258 41.233 10.545C41.748 9.57149 42.0041 8.48199 41.977 7.381V6.067C42.003 4.98048 41.7467 3.90579 41.233 2.948C40.7507 2.07833 40.0194 1.37276 39.133 0.922002C38.1322 0.433369 37.0284 0.193253 35.915 0.222005H28.509V22.726H32.036V13.321H34.8L38.7 22.726H42.752L38.441 12.897C38.6738 12.8116 38.901 12.7114 39.121 12.597V12.603ZM32.044 3.603H35.988C36.4245 3.59303 36.8554 3.70265 37.234 3.92C37.59 4.13252 37.8732 4.44809 38.046 4.825C38.2392 5.25259 38.3345 5.7179 38.325 6.18701V7.40901C38.3248 7.8768 38.2224 8.3389 38.025 8.76301C37.849 9.12748 37.5656 9.42934 37.213 9.628C36.8363 9.834 36.4122 9.93745 35.983 9.928H32.039L32.044 3.603Z" fill="black"/>
<path d="M53.047 0.234009H50.355L43.486 22.724H47.215L48.365 18.487H55.029L56.176 22.724H59.911L53.047 0.234009ZM49.276 15.147L51.705 6.20601L54.132 15.147H49.276Z" fill="black"/>
<path d="M64.1 7.33601L71.356 22.711H74.806V0.234009H71.432V16.034L64.132 0.234009H60.732V22.712H64.104L64.1 7.33601Z" fill="black"/>
<path d="M89.54 19.733C90.0951 18.6613 90.3702 17.4666 90.34 16.26V6.69203C90.375 5.47634 90.0997 4.27177 89.54 3.19203C89.0092 2.23265 88.1932 1.46207 87.205 0.987027C86.0519 0.45481 84.7916 0.195435 83.522 0.229028H76.962V22.718H83.504C84.7846 22.7568 86.0563 22.4944 87.217 21.952C88.204 21.4729 89.0162 20.697 89.54 19.733V19.733ZM86.717 16.233C86.7449 16.6548 86.6842 17.0777 86.5391 17.4746C86.3939 17.8715 86.1674 18.2338 85.874 18.538C85.2131 19.1099 84.353 19.3974 83.481 19.338H80.49V3.62203H83.481C84.3524 3.56684 85.211 3.85386 85.874 4.42202C86.1684 4.72553 86.3957 5.08763 86.5409 5.48477C86.6862 5.8819 86.7462 6.30517 86.717 6.72703V16.233Z" fill="black"/>
<path d="M97.862 16.6C97.9132 17.3696 97.6821 18.1315 97.212 18.743C96.9777 18.9979 96.6895 19.1975 96.3685 19.3272C96.0475 19.4569 95.7016 19.5136 95.356 19.493C94.8519 19.4956 94.355 19.373 93.91 19.136C93.4584 18.8956 93.0691 18.5532 92.773 18.136L90.065 20.329C90.6228 21.1561 91.388 21.8223 92.284 22.261C93.2349 22.7242 94.2813 22.9578 95.339 22.943C96.482 22.9743 97.6152 22.7244 98.639 22.215C99.5454 21.7442 100.28 20.9996 100.739 20.087C101.246 19.04 101.493 17.8859 101.459 16.723V0.234009H97.87L97.862 16.6Z" fill="black"/>
<path d="M106.672 22.145C107.793 22.6805 109.019 22.9585 110.261 22.9585C111.503 22.9585 112.729 22.6805 113.85 22.145C114.837 21.6117 115.635 20.7845 116.131 19.778C116.692 18.6148 116.967 17.334 116.931 16.043V0.234009H113.401V16.134C113.459 17.0285 113.168 17.9108 112.589 18.595C111.951 19.1496 111.133 19.4543 110.287 19.4528C109.442 19.4514 108.625 19.1438 107.989 18.587C107.415 17.9003 107.129 17.0187 107.189 16.126V0.234009H103.641V16.044C103.606 17.3322 103.871 18.6109 104.415 19.779C104.9 20.7855 105.689 21.6134 106.672 22.145V22.145Z" fill="black"/>
<path d="M129.529 16.036L122.229 0.236008H118.829V22.712H122.201V7.33601L129.455 22.711H132.905V0.234009H129.533L129.529 16.036Z" fill="black"/>
<path d="M142.037 10.491V13.871H145.13V15.962C145.146 16.6049 145.014 17.2428 144.743 17.826C144.507 18.3285 144.123 18.7471 143.643 19.026C143.128 19.3108 142.546 19.4527 141.958 19.437C141.362 19.4516 140.773 19.3186 140.241 19.05C139.766 18.8028 139.375 18.4199 139.118 17.95C138.843 17.4366 138.706 16.8611 138.718 16.279V7.109C138.704 6.45943 138.833 5.81474 139.097 5.221C139.329 4.70865 139.709 4.27746 140.188 3.983C140.694 3.68658 141.273 3.53666 141.859 3.54999C142.366 3.53976 142.867 3.66802 143.307 3.921C143.739 4.1874 144.086 4.57142 144.307 5.028C144.582 5.6023 144.742 6.22447 144.78 6.86H148.523C148.467 5.54705 148.135 4.26063 147.548 3.08499C147.045 2.10869 146.261 1.30572 145.297 0.779995C144.196 0.257876 142.99 -0.0057916 141.772 0.00911287C140.553 0.0240173 139.354 0.317102 138.266 0.865997C137.254 1.4357 136.435 2.29521 135.915 3.334C135.34 4.50755 135.056 5.80242 135.087 7.109V16.262C135.058 17.5026 135.346 18.7301 135.922 19.829C136.465 20.8297 137.3 21.6414 138.315 22.156C139.442 22.7114 140.688 22.9858 141.944 22.956C143.195 22.9873 144.432 22.6912 145.533 22.097C146.544 21.5344 147.365 20.6841 147.892 19.654C148.467 18.4918 148.751 17.2072 148.719 15.911V10.491H142.037Z" fill="black"/>
<path d="M18.927 28.394L12.183 50.888H15.063L16.487 45.688H24.063L25.487 50.888H28.363L21.619 28.394H18.927ZM17.156 43.229L20.273 31.844L23.392 43.229H17.156Z" fill="black"/>
<path d="M35.255 41.405H39.201V44.065C39.2256 44.9167 39.067 45.7638 38.736 46.549C38.4608 47.1845 37.9928 47.7173 37.398 48.072C36.7418 48.4296 36.002 48.6057 35.255 48.582C34.4889 48.6042 33.7293 48.4362 33.044 48.093C32.4396 47.7806 31.9496 47.2849 31.644 46.677C31.3127 45.9775 31.1514 45.2097 31.173 44.436V35.246C31.1497 34.4025 31.3084 33.5638 31.638 32.787C31.9164 32.1409 32.3889 31.5975 32.99 31.232C33.6471 30.8594 34.394 30.6747 35.149 30.698C35.7958 30.6818 36.4348 30.8426 36.997 31.163C37.542 31.4998 37.9792 31.9856 38.257 32.563C38.6023 33.2797 38.8022 34.0576 38.845 34.852H41.69C41.6365 33.569 41.3124 32.3119 40.739 31.163C40.2511 30.2112 39.4866 29.4293 38.546 28.92C37.4958 28.3925 36.3307 28.1348 35.156 28.17C33.9085 28.1328 32.6724 28.4176 31.567 28.997C30.5758 29.5462 29.7832 30.3941 29.302 31.42C28.758 32.6239 28.4934 33.9353 28.528 35.256V44.44C28.4931 45.6943 28.7614 46.9385 29.31 48.067C29.8124 49.0542 30.6187 49.8539 31.61 50.348C32.7483 50.8921 33.9998 51.1574 35.261 51.122C36.509 51.164 37.7462 50.8789 38.85 50.295C39.8416 49.7467 40.6349 48.8994 41.117 47.874C41.661 46.6701 41.9256 45.3587 41.891 44.038V38.938H35.253L35.255 41.405Z" fill="black"/>
<path d="M45.565 28.394H44.034V50.888H56.085V48.398H46.68V40.954H54.847V38.48H46.68V30.88H56.085V28.39H45.565V28.394Z" fill="black"/>
<path d="M69.072 45.636L60.272 28.394H57.84V50.872H60.424V33.865L69.195 50.871H71.669V28.394H69.069L69.072 45.636Z" fill="black"/>
<path d="M73.271 30.884H78.639V50.884H81.281V30.884H86.665V28.394H73.265L73.271 30.884Z" fill="black"/>
<path d="M98.606 44.437C98.687 45.5467 98.3346 46.6447 97.623 47.5C96.8088 48.1689 95.7877 48.5346 94.734 48.5346C93.6802 48.5346 92.6592 48.1689 91.845 47.5C91.1374 46.6428 90.7881 45.5455 90.87 44.437V28.394H88.226V44.346C88.1865 45.6285 88.4374 46.9032 88.96 48.075C89.4185 49.0541 90.1844 49.8564 91.141 50.36C92.27 50.8661 93.4936 51.127 94.7308 51.1257C95.9681 51.1243 97.1911 50.8606 98.319 50.352C99.2763 49.8473 100.045 49.0474 100.512 48.071C101.04 46.9037 101.294 45.6308 101.254 44.35V28.398H98.606V44.437Z" fill="black"/>
<path d="M113.751 40.663C114.643 40.2082 115.379 39.4962 115.862 38.619C116.375 37.6591 116.63 36.5829 116.604 35.495V34.181C116.63 33.1034 116.377 32.0373 115.87 31.086C115.387 30.2167 114.65 29.5155 113.758 29.076C112.745 28.5895 111.631 28.3496 110.508 28.376H103.394V50.884H106.034V41.369H110.506L114.34 50.884H117.389L113.13 40.93C113.34 40.851 113.546 40.7606 113.746 40.659L113.751 40.663ZM106.038 30.871H110.68C111.284 30.8542 111.882 30.9981 112.413 31.288C112.899 31.5682 113.29 31.9885 113.534 32.494C113.809 33.0676 113.946 33.6978 113.934 34.334V35.494C113.94 36.1199 113.803 36.7389 113.534 37.304C113.292 37.8031 112.9 38.2142 112.413 38.48C111.881 38.757 111.288 38.8946 110.688 38.88H106.034L106.038 30.871Z" fill="black"/>
<path d="M124.673 31.218C124.963 30.9438 125.16 30.5856 125.237 30.1937C125.313 29.8017 125.265 29.3957 125.099 29.0324C124.933 28.6692 124.658 28.3671 124.312 28.1683C123.965 27.9695 123.565 27.8841 123.168 27.924H121.028V33.571H122.196V31.744H123.163L124.018 33.556H125.318L124.279 31.5C124.423 31.4258 124.556 31.3308 124.673 31.218V31.218ZM122.198 28.944H123.198C123.31 28.9389 123.421 28.9563 123.526 28.9953C123.631 29.0343 123.727 29.0941 123.808 29.171C123.889 29.2579 123.952 29.3606 123.992 29.4728C124.032 29.585 124.048 29.7043 124.039 29.823C124.047 29.9445 124.031 30.0663 123.991 30.1814C123.952 30.2965 123.889 30.4024 123.808 30.493C123.728 30.5723 123.633 30.6341 123.528 30.6745C123.423 30.715 123.31 30.7332 123.198 30.728H122.198V28.944Z" fill="black"/>
<path d="M125.716 25.762C124.86 25.3796 123.932 25.1819 122.995 25.1819C122.057 25.1819 121.129 25.3796 120.273 25.762C119.537 26.1329 118.936 26.7259 118.556 27.457C118.139 28.2883 117.933 29.2093 117.956 30.139V31.491C117.934 32.4072 118.14 33.3144 118.556 34.131C118.939 34.8567 119.542 35.4424 120.279 35.804C121.135 36.1801 122.06 36.3744 122.995 36.3744C123.93 36.3744 124.855 36.1801 125.711 35.804C126.446 35.4407 127.049 34.8555 127.434 34.131C127.851 33.3148 128.057 32.4073 128.034 31.491V30.139C128.058 29.2092 127.852 28.288 127.434 27.457C127.051 26.7274 126.451 26.135 125.716 25.762V25.762ZM126.849 31.491C126.867 32.1831 126.711 32.8685 126.396 33.485C126.098 34.0359 125.635 34.4794 125.072 34.753C124.416 35.0401 123.708 35.1884 122.993 35.1884C122.277 35.1884 121.569 35.0401 120.913 34.753C120.354 34.4776 119.894 34.0343 119.599 33.485C119.283 32.869 119.126 32.1833 119.144 31.491V30.139C119.122 29.4124 119.279 28.6916 119.599 28.039C119.889 27.4735 120.348 27.0127 120.913 26.721C121.567 26.4228 122.278 26.2685 122.996 26.2685C123.715 26.2685 124.426 26.4228 125.08 26.721C125.645 27.0131 126.105 27.4738 126.396 28.039C126.715 28.692 126.87 29.4127 126.849 30.139V31.491Z" fill="black"/>
<path d="M4.656 0.00100708H0V51.12H4.656V0.00100708Z" fill="#931825"/>
</g>
<defs>
<clipPath id="clip0_12_2">
<rect width="148.721" height="51.125" fill="white"/>
</clipPath>
</defs>
</svg>
