<svg width="260" height="260" viewBox="0 0 260 260" fill="none" xmlns="http://www.w3.org/2000/svg">
<rect width="260" height="260" fill="white"/>
<path d="M86.0651 182.855C86.3131 182.855 86.5509 182.953 86.7262 183.128C86.9015 183.304 87 183.541 87 183.789V195.223C86.9977 195.392 86.9499 195.557 86.8615 195.7C86.7732 195.844 86.6476 195.961 86.4981 196.039C86.3486 196.117 86.1808 196.153 86.0124 196.144C85.844 196.134 85.6813 196.08 85.5416 195.985L77.5669 190.287C77.4463 190.2 77.348 190.086 77.2802 189.954C77.2124 189.822 77.1771 189.676 77.1771 189.527C77.1771 189.379 77.2124 189.232 77.2802 189.1C77.348 188.968 77.4463 188.854 77.5669 188.768L85.5416 183.032C85.6942 182.921 85.8767 182.86 86.0651 182.855V182.855Z" fill="#899DB0"/>
<path d="M73.9349 196.05H75.3372C75.8535 196.05 76.2721 195.632 76.2721 195.116V183.897C76.2721 183.381 75.8535 182.962 75.3372 182.962H73.9349C73.4185 182.962 73 183.381 73 183.897V195.116C73 195.632 73.4185 196.05 73.9349 196.05Z" fill="#899DB0"/>
<circle cx="127.5" cy="189.5" r="17.5" fill="#F2F9FF"/>
<path d="M136.415 188.046L124.508 182.098C124.347 182.024 124.17 181.991 123.994 182.002C123.817 182.013 123.646 182.069 123.496 182.163C123.346 182.257 123.222 182.387 123.136 182.541C123.049 182.696 123.002 182.869 123 183.046V194.936C122.999 195.118 123.044 195.296 123.132 195.455C123.22 195.614 123.347 195.748 123.502 195.843C123.657 195.938 123.833 195.992 124.015 195.999C124.196 196.006 124.377 195.967 124.538 195.884L136.415 189.936C136.591 189.848 136.739 189.713 136.842 189.545C136.945 189.378 137 189.185 137 188.988C137 188.792 136.945 188.599 136.842 188.432C136.739 188.264 136.591 188.129 136.415 188.041V188.046Z" fill="#899DB0"/>
<path d="M168.935 196.145C168.687 196.145 168.449 196.047 168.274 195.872C168.098 195.696 168 195.459 168 195.211V183.777C168.002 183.608 168.05 183.443 168.138 183.3C168.227 183.156 168.352 183.039 168.502 182.961C168.651 182.883 168.819 182.847 168.988 182.856C169.156 182.866 169.319 182.92 169.458 183.015L177.433 188.713C177.554 188.8 177.652 188.914 177.72 189.046C177.788 189.178 177.823 189.324 177.823 189.473C177.823 189.621 177.788 189.768 177.72 189.9C177.652 190.032 177.554 190.146 177.433 190.232L169.458 195.968C169.306 196.079 169.123 196.14 168.935 196.145V196.145Z" fill="#899DB0"/>
<path d="M181.065 182.95H179.663C179.146 182.95 178.728 183.368 178.728 183.884V195.103C178.728 195.619 179.146 196.038 179.663 196.038H181.065C181.581 196.038 182 195.619 182 195.103V183.884C182 183.368 181.581 182.95 181.065 182.95Z" fill="#899DB0"/>
<circle cx="128.5" cy="75.5" r="33.5" stroke="#AEC0D1" stroke-width="40"/>
<path d="M55 150.25H61.3566C62.9078 150.25 64.4148 149.733 65.6392 148.781V148.781C68.4161 146.621 72.3667 146.867 74.8543 149.354L75.75 150.25C78.6495 153.149 83.3505 153.149 86.25 150.25V150.25C89.1495 147.351 93.8505 147.351 96.75 150.25V150.25C99.6495 153.149 104.351 153.149 107.25 150.25L108.342 149.158C110.867 146.633 114.649 145.847 117.971 147.155L125.295 150.04C127.743 151.005 130.351 151.5 132.982 151.5H205.5" stroke="#DEE7EF" stroke-width="2" stroke-linecap="round"/>
<g clip-path="url(#clip0_39_1353)">
<path d="M55 150.25H61.3566C62.9078 150.25 64.4148 149.733 65.6392 148.781V148.781C68.4161 146.621 72.3667 146.867 74.8543 149.354L75.75 150.25C78.6495 153.149 83.3505 153.149 86.25 150.25V150.25C89.1495 147.351 93.8505 147.351 96.75 150.25V150.25C99.6495 153.149 104.351 153.149 107.25 150.25L108.342 149.158C110.867 146.633 114.649 145.847 117.971 147.155L125.295 150.04C127.743 151.005 130.351 151.5 132.982 151.5H205.5" stroke="#0094FF" stroke-width="2" stroke-linecap="round"/>
</g>
<circle cx="129" cy="151" r="4" fill="#0094FF"/>
<defs>
<clipPath id="clip0_39_1353">
<rect width="76" height="22" fill="white" transform="translate(54 139)"/>
</clipPath>
</defs>
</svg>
