<svg width="242" height="242" viewBox="0 0 242 242" fill="none" xmlns="http://www.w3.org/2000/svg">
<rect width="242" height="242" fill="white"/>
<path d="M77.0651 181.855C77.3131 181.855 77.5509 181.953 77.7262 182.128C77.9015 182.304 78 182.541 78 182.789V194.223C77.9977 194.392 77.9499 194.557 77.8615 194.7C77.7732 194.844 77.6476 194.961 77.4981 195.039C77.3486 195.117 77.1808 195.153 77.0124 195.144C76.844 195.134 76.6813 195.08 76.5416 194.985L68.5669 189.287C68.4463 189.2 68.348 189.086 68.2802 188.954C68.2124 188.822 68.1771 188.676 68.1771 188.527C68.1771 188.379 68.2124 188.232 68.2802 188.1C68.348 187.968 68.4463 187.854 68.5669 187.768L76.5416 182.032C76.6942 181.921 76.8767 181.86 77.0651 181.855V181.855Z" fill="#DEE7EF"/>
<path d="M64.9349 195.05H66.3372C66.8535 195.05 67.2721 194.632 67.2721 194.116V182.897C67.2721 182.381 66.8535 181.962 66.3372 181.962H64.9349C64.4185 181.962 64 182.381 64 182.897V194.116C64 194.632 64.4185 195.05 64.9349 195.05Z" fill="#DEE7EF"/>
<circle cx="118.5" cy="188.5" r="17.5" fill="#F2F9FF"/>
<path d="M127.415 187.046L115.508 181.098C115.347 181.024 115.17 180.991 114.994 181.002C114.817 181.013 114.646 181.069 114.496 181.163C114.346 181.257 114.222 181.387 114.136 181.541C114.049 181.696 114.002 181.869 114 182.046V193.936C113.999 194.118 114.044 194.296 114.132 194.455C114.22 194.614 114.347 194.748 114.502 194.843C114.657 194.938 114.833 194.992 115.015 194.999C115.196 195.006 115.377 194.967 115.538 194.884L127.415 188.936C127.591 188.848 127.739 188.713 127.842 188.545C127.945 188.378 128 188.185 128 187.988C128 187.792 127.945 187.599 127.842 187.432C127.739 187.264 127.591 187.129 127.415 187.041V187.046Z" fill="#899DB0"/>
<path d="M159.935 195.145C159.687 195.145 159.449 195.047 159.274 194.872C159.098 194.696 159 194.459 159 194.211V182.777C159.002 182.608 159.05 182.443 159.138 182.3C159.227 182.156 159.352 182.039 159.502 181.961C159.651 181.883 159.819 181.847 159.988 181.856C160.156 181.866 160.319 181.92 160.458 182.015L168.433 187.713C168.554 187.8 168.652 187.914 168.72 188.046C168.788 188.178 168.823 188.324 168.823 188.473C168.823 188.621 168.788 188.768 168.72 188.9C168.652 189.032 168.554 189.146 168.433 189.232L160.458 194.968C160.306 195.079 160.123 195.14 159.935 195.145V195.145Z" fill="#DEE7EF"/>
<path d="M172.065 181.95H170.663C170.146 181.95 169.728 182.368 169.728 182.884V194.103C169.728 194.619 170.146 195.038 170.663 195.038H172.065C172.581 195.038 173 194.619 173 194.103V182.884C173 182.368 172.581 181.95 172.065 181.95Z" fill="#DEE7EF"/>
<circle cx="119.5" cy="74.5" r="33.5" stroke="#DEE7EF" stroke-width="40"/>
<path d="M46 149.25H52.3566C53.9078 149.25 55.4148 148.733 56.6392 147.781V147.781C59.4161 145.621 63.3667 145.867 65.8543 148.354L66.75 149.25C69.6495 152.149 74.3505 152.149 77.25 149.25V149.25C80.1495 146.351 84.8505 146.351 87.75 149.25V149.25C90.6495 152.149 95.3505 152.149 98.25 149.25L99.3419 148.158C101.867 145.633 105.649 144.847 108.971 146.155L116.295 149.04C118.743 150.005 121.351 150.5 123.982 150.5H196.5" stroke="#DEE7EF" stroke-width="2" stroke-linecap="round"/>
<g clip-path="url(#clip0_39_1353)">
<path d="M46 149.25H52.3566C53.9078 149.25 55.4148 148.733 56.6392 147.781V147.781C59.4161 145.621 63.3667 145.867 65.8543 148.354L66.75 149.25C69.6495 152.149 74.3505 152.149 77.25 149.25V149.25C80.1495 146.351 84.8505 146.351 87.75 149.25V149.25C90.6495 152.149 95.3505 152.149 98.25 149.25L99.3419 148.158C101.867 145.633 105.649 144.847 108.971 146.155L116.295 149.04C118.743 150.005 121.351 150.5 123.982 150.5H196.5" stroke="#0094FF" stroke-width="2" stroke-linecap="round"/>
</g>
<circle cx="120" cy="150" r="4" fill="#0094FF"/>
<defs>
<clipPath id="clip0_39_1353">
<rect width="76" height="22" fill="white" transform="translate(45 138)"/>
</clipPath>
</defs>
</svg>
