<svg width="260" height="260" viewBox="0 0 260 260" fill="none" xmlns="http://www.w3.org/2000/svg">
<rect width="260" height="260" fill="white"/>
<path d="M86.0651 192.855C86.3131 192.855 86.5509 192.953 86.7262 193.128C86.9015 193.304 87 193.541 87 193.789V205.223C86.9977 205.392 86.9499 205.557 86.8615 205.7C86.7732 205.844 86.6476 205.961 86.4981 206.039C86.3486 206.117 86.1808 206.153 86.0124 206.144C85.844 206.134 85.6813 206.08 85.5416 205.985L77.5669 200.287C77.4463 200.2 77.348 200.086 77.2802 199.954C77.2124 199.822 77.1771 199.676 77.1771 199.527C77.1771 199.379 77.2124 199.232 77.2802 199.1C77.348 198.968 77.4463 198.854 77.5669 198.768L85.5416 193.032C85.6942 192.921 85.8767 192.86 86.0651 192.855V192.855Z" fill="#899DB0"/>
<path d="M73.9349 206.05H75.3372C75.8535 206.05 76.2721 205.632 76.2721 205.116V193.897C76.2721 193.381 75.8535 192.962 75.3372 192.962H73.9349C73.4185 192.962 73 193.381 73 193.897V205.116C73 205.632 73.4185 206.05 73.9349 206.05Z" fill="#899DB0"/>
<circle cx="127.5" cy="199.5" r="17.5" fill="#F2F9FF"/>
<path d="M136.415 198.046L124.508 192.098C124.347 192.024 124.17 191.991 123.994 192.002C123.817 192.013 123.646 192.069 123.496 192.163C123.346 192.257 123.222 192.387 123.136 192.541C123.049 192.696 123.002 192.869 123 193.046V204.936C122.999 205.118 123.044 205.296 123.132 205.455C123.22 205.614 123.347 205.748 123.502 205.843C123.657 205.938 123.833 205.992 124.015 205.999C124.196 206.006 124.377 205.967 124.538 205.884L136.415 199.936C136.591 199.848 136.739 199.713 136.842 199.545C136.945 199.378 137 199.185 137 198.988C137 198.792 136.945 198.599 136.842 198.432C136.739 198.264 136.591 198.129 136.415 198.041V198.046Z" fill="#899DB0"/>
<path d="M168.935 206.145C168.687 206.145 168.449 206.047 168.274 205.872C168.098 205.696 168 205.459 168 205.211V193.777C168.002 193.608 168.05 193.443 168.138 193.3C168.227 193.156 168.352 193.039 168.502 192.961C168.651 192.883 168.819 192.847 168.988 192.856C169.156 192.866 169.319 192.92 169.458 193.015L177.433 198.713C177.554 198.8 177.652 198.914 177.72 199.046C177.788 199.178 177.823 199.324 177.823 199.473C177.823 199.621 177.788 199.768 177.72 199.9C177.652 200.032 177.554 200.146 177.433 200.232L169.458 205.968C169.306 206.079 169.123 206.14 168.935 206.145V206.145Z" fill="#899DB0"/>
<path d="M181.065 192.95H179.663C179.146 192.95 178.728 193.368 178.728 193.884V205.103C178.728 205.619 179.146 206.038 179.663 206.038H181.065C181.581 206.038 182 205.619 182 205.103V193.884C182 193.368 181.581 192.95 181.065 192.95Z" fill="#899DB0"/>
<circle cx="128.5" cy="85.5" r="33.5" stroke="#AEC0D1" stroke-width="40"/>
<path d="M55 160.25H61.3566C62.9078 160.25 64.4148 159.733 65.6392 158.781V158.781C68.4161 156.621 72.3667 156.867 74.8543 159.354L75.75 160.25C78.6495 163.149 83.3505 163.149 86.25 160.25V160.25C89.1495 157.351 93.8505 157.351 96.75 160.25V160.25C99.6495 163.149 104.351 163.149 107.25 160.25L108.342 159.158C110.867 156.633 114.649 155.847 117.971 157.155L125.295 160.04C127.743 161.005 130.351 161.5 132.982 161.5H205.5" stroke="#DEE7EF" stroke-width="2" stroke-linecap="round"/>
<g clip-path="url(#clip0_39_1353)">
<path d="M55 160.25H61.3566C62.9078 160.25 64.4148 159.733 65.6392 158.781V158.781C68.4161 156.621 72.3667 156.867 74.8543 159.354L75.75 160.25C78.6495 163.149 83.3505 163.149 86.25 160.25V160.25C89.1495 157.351 93.8505 157.351 96.75 160.25V160.25C99.6495 163.149 104.351 163.149 107.25 160.25L108.342 159.158C110.867 156.633 114.649 155.847 117.971 157.155L125.295 160.04C127.743 161.005 130.351 161.5 132.982 161.5H205.5" stroke="#0094FF" stroke-width="2" stroke-linecap="round"/>
</g>
<circle cx="129" cy="161" r="4" fill="#0094FF"/>
<defs>
<clipPath id="clip0_39_1353">
<rect width="76" height="22" fill="white" transform="translate(54 149)"/>
</clipPath>
</defs>
</svg>
